<svg width="14" height="14" viewBox="0 0 14 14" fill="none" xmlns="http://www.w3.org/2000/svg">
<path d="M12.2499 3.92585C12.2382 3.92585 12.2207 3.92585 12.2032 3.92585C9.11739 3.61669 6.03739 3.50002 2.98656 3.80919L1.79656 3.92585C1.55156 3.94919 1.33572 3.77419 1.31239 3.52919C1.28906 3.28419 1.46406 3.07419 1.70322 3.05085L2.89322 2.93419C5.99656 2.61919 9.14072 2.74169 12.2907 3.05085C12.5299 3.07419 12.7049 3.29002 12.6816 3.52919C12.6641 3.75669 12.4716 3.92585 12.2499 3.92585Z" fill="#515151"/>
<path d="M4.95844 3.33669C4.93511 3.33669 4.91177 3.33669 4.88261 3.33085C4.64927 3.29002 4.48594 3.06252 4.52677 2.82919L4.65511 2.06502C4.74844 1.50502 4.87677 0.729187 6.23594 0.729187H7.76427C9.12927 0.729187 9.25761 1.53419 9.34511 2.07085L9.47344 2.82919C9.51427 3.06835 9.35094 3.29585 9.11761 3.33085C8.87844 3.37169 8.65094 3.20835 8.61594 2.97502L8.48761 2.21669C8.40594 1.70919 8.38844 1.61002 7.77011 1.61002H6.24177C5.62344 1.61002 5.61177 1.69169 5.52427 2.21085L5.39011 2.96919C5.35511 3.18502 5.16844 3.33669 4.95844 3.33669Z" fill="#515151"/>
<path d="M8.8724 13.2709H5.1274C3.09157 13.2709 3.0099 12.145 2.94573 11.235L2.56657 5.36085C2.54907 5.12169 2.73573 4.91169 2.9749 4.89419C3.2199 4.88252 3.42407 5.06335 3.44157 5.30252L3.82073 11.1767C3.8849 12.0634 3.90823 12.3959 5.1274 12.3959H8.8724C10.0974 12.3959 10.1207 12.0634 10.1791 11.1767L10.5582 5.30252C10.5757 5.06335 10.7857 4.88252 11.0249 4.89419C11.2641 4.91169 11.4507 5.11585 11.4332 5.36085L11.0541 11.235C10.9899 12.145 10.9082 13.2709 8.8724 13.2709Z" fill="#515151"/>
<path d="M7.96838 10.0625H6.02588C5.78671 10.0625 5.58838 9.86419 5.58838 9.62502C5.58838 9.38586 5.78671 9.18752 6.02588 9.18752H7.96838C8.20755 9.18752 8.40588 9.38586 8.40588 9.62502C8.40588 9.86419 8.20755 10.0625 7.96838 10.0625Z" fill="#515151"/>
<path d="M8.45841 7.72919H5.54175C5.30258 7.72919 5.10425 7.53085 5.10425 7.29169C5.10425 7.05252 5.30258 6.85419 5.54175 6.85419H8.45841C8.69758 6.85419 8.89591 7.05252 8.89591 7.29169C8.89591 7.53085 8.69758 7.72919 8.45841 7.72919Z" fill="#515151"/>
</svg>
